<svg width="70" height="67" viewBox="0 0 70 67" fill="none" xmlns="http://www.w3.org/2000/svg">
<path d="M35 0.799805C32.1425 0.799805 29.7608 2.31427 26.2773 4.03457C22.7939 5.75487 18.1523 7.82717 10.9074 9.37754L9.8 9.61543V10.7475C9.8 27.5669 15.9103 38.9246 22.0418 46.0018C28.1733 53.079 34.4121 55.9713 34.4121 55.9713L35 56.242L35.5879 55.9713C35.5879 55.9713 41.8267 53.079 47.9582 46.0018C54.0897 38.9246 60.2 27.5669 60.2 10.7475V9.61543L59.0926 9.37754C51.8477 7.82717 47.2061 5.75487 43.7227 4.03457C40.2392 2.31427 37.8575 0.799805 35 0.799805ZM35 3.5998C36.7706 3.5998 38.9126 4.78103 42.484 6.54473C45.8294 8.19687 50.5734 10.1986 57.307 11.7701C57.0494 27.2956 51.4774 37.6622 45.8418 44.167C40.5506 50.2744 35.8243 52.6715 35 53.0756C34.1757 52.6715 29.4494 50.2744 24.1582 44.167C18.5226 37.6622 12.9506 27.2956 12.693 11.7701C19.4266 10.1986 24.1706 8.19687 27.516 6.54473C31.0874 4.78103 33.2294 3.5998 35 3.5998ZM35 18.349C34.1877 18.3504 33.3977 18.6147 32.7481 19.1025C32.0985 19.5903 31.6244 20.2753 31.3966 21.055C31.1688 21.8347 31.1996 22.6672 31.4844 23.4279C31.7692 24.1887 32.2927 24.8368 32.9766 25.2752L31.2402 33.3908H38.7598L37.0234 25.2779C37.5557 24.938 37.9938 24.4695 38.2972 23.9156C38.6007 23.3617 38.7598 22.7403 38.7598 22.1088C38.7596 21.1117 38.3634 20.1555 37.6583 19.4504C36.9533 18.7454 35.9971 18.3492 35 18.349ZM4.2 25.9998C2.91667 25.9998 1.77598 26.5315 1.05273 27.3451C0.329486 28.1588 0 29.1887 0 30.1998C0 31.2109 0.329486 32.2408 1.05273 33.0545C1.77598 33.8681 2.91667 34.3998 4.2 34.3998C4.54757 34.3998 4.88233 34.3553 5.20352 34.2822L11.591 40.965C11.7208 41.1024 11.8772 41.2118 12.0507 41.2865C12.2242 41.3613 12.4111 41.3998 12.6 41.3998H15.3016C14.7416 40.5038 14.2093 39.5658 13.6773 38.5998H13.2016L7.58789 32.7236C8.13193 31.9691 8.4 31.0818 8.4 30.1998C8.4 29.1887 8.07051 28.1588 7.34727 27.3451C6.62402 26.5315 5.48333 25.9998 4.2 25.9998ZM65.8 25.9998C64.5167 25.9998 63.376 26.5315 62.6527 27.3451C61.9295 28.1588 61.6 29.1887 61.6 30.1998C61.6 31.0818 61.8681 31.9691 62.4121 32.7236L56.7984 38.5998H56.3227C55.7907 39.5658 55.2584 40.5038 54.6984 41.3998H57.4C57.5889 41.3998 57.7758 41.3613 57.9493 41.2865C58.1228 41.2118 58.2792 41.1024 58.409 40.965L64.7965 34.2822C65.1177 34.3553 65.4524 34.3998 65.8 34.3998C67.0833 34.3998 68.224 33.8681 68.9473 33.0545C69.6705 32.2408 70 31.2109 70 30.1998C70 29.1887 69.6705 28.1588 68.9473 27.3451C68.224 26.5315 67.0833 25.9998 65.8 25.9998ZM4.2 28.7998C4.78333 28.7998 5.04265 28.9681 5.25273 29.2045C5.46282 29.4408 5.6 29.8109 5.6 30.1998C5.6 30.5887 5.46282 30.9588 5.25273 31.1951C5.04265 31.4315 4.78333 31.5998 4.2 31.5998C3.61667 31.5998 3.35735 31.4315 3.14727 31.1951C2.93718 30.9588 2.8 30.5887 2.8 30.1998C2.8 29.8109 2.93718 29.4408 3.14727 29.2045C3.35735 28.9681 3.61667 28.7998 4.2 28.7998ZM65.8 28.7998C66.3833 28.7998 66.6426 28.9681 66.8527 29.2045C67.0628 29.4408 67.2 29.8109 67.2 30.1998C67.2 30.5887 67.0628 30.9588 66.8527 31.1951C66.6426 31.4315 66.3833 31.5998 65.8 31.5998C65.2167 31.5998 64.9574 31.4315 64.7473 31.1951C64.5372 30.9588 64.4 30.5887 64.4 30.1998C64.4 29.8109 64.5372 29.4408 64.7473 29.2045C64.9574 28.9681 65.2167 28.7998 65.8 28.7998ZM5.6 42.7998C4.31667 42.7998 3.17598 43.3315 2.45273 44.1451C1.72949 44.9588 1.4 45.9887 1.4 46.9998C1.4 48.0109 1.72949 49.0408 2.45273 49.8545C3.17598 50.6682 4.31667 51.1998 5.6 51.1998C6.88333 51.1998 8.02402 50.6682 8.74727 49.8545C9.13356 49.4199 9.40162 48.922 9.57305 48.3998H20.4832C19.6992 47.5318 18.9283 46.5938 18.1863 45.5998H9.57305C9.40162 45.0777 9.13356 44.5797 8.74727 44.1451C8.02402 43.3315 6.88333 42.7998 5.6 42.7998ZM64.4 42.7998C63.1167 42.7998 61.976 43.3315 61.2527 44.1451C60.8664 44.5797 60.5984 45.0777 60.427 45.5998H51.8137C51.0717 46.5938 50.3008 47.5318 49.5168 48.3998H60.427C60.5984 48.922 60.8664 49.4199 61.2527 49.8545C61.976 50.6682 63.1167 51.1998 64.4 51.1998C65.6833 51.1998 66.824 50.6682 67.5473 49.8545C68.2705 49.0408 68.6 48.0109 68.6 46.9998C68.6 45.9887 68.2705 44.9588 67.5473 44.1451C66.824 43.3315 65.6833 42.7998 64.4 42.7998ZM5.6 45.5998C6.18333 45.5998 6.44265 45.7682 6.65273 46.0045C6.86282 46.2408 7 46.6109 7 46.9998C7 47.3887 6.86282 47.7588 6.65273 47.9951C6.44265 48.2315 6.18333 48.3998 5.6 48.3998C5.01667 48.3998 4.75735 48.2315 4.54727 47.9951C4.33718 47.7588 4.2 47.3887 4.2 46.9998C4.2 46.6109 4.33718 46.2408 4.54727 46.0045C4.75735 45.7682 5.01667 45.5998 5.6 45.5998ZM64.4 45.5998C64.9833 45.5998 65.2427 45.7682 65.4527 46.0045C65.6628 46.2408 65.8 46.6109 65.8 46.9998C65.8 47.3887 65.6628 47.7588 65.4527 47.9951C65.2427 48.2315 64.9833 48.3998 64.4 48.3998C63.8167 48.3998 63.5574 48.2315 63.3473 47.9951C63.1372 47.7588 63 47.3887 63 46.9998C63 46.6109 63.1372 46.2408 63.3473 46.0045C63.5574 45.7682 63.8167 45.5998 64.4 45.5998ZM18.1809 51.1998C17.9952 51.2024 17.8119 51.2422 17.6419 51.3168C17.4718 51.3915 17.3185 51.4996 17.191 51.6346L10.8035 58.3174C10.4823 58.2444 10.1476 58.1998 9.8 58.1998C8.51667 58.1998 7.37598 58.7315 6.65273 59.5451C5.92949 60.3588 5.6 61.3887 5.6 62.3998C5.6 63.4109 5.92949 64.4408 6.65273 65.2545C7.37598 66.0682 8.51667 66.5998 9.8 66.5998C11.0833 66.5998 12.224 66.0682 12.9473 65.2545C13.6705 64.4408 14 63.4109 14 62.3998C14 61.5178 13.7319 60.6306 13.1879 59.876L18.8016 53.9998H26.2227C25.2287 53.1878 24.1917 52.2498 23.1137 51.1998H18.2C18.1936 51.1998 18.1872 51.1998 18.1809 51.1998ZM46.8863 51.1998C45.8083 52.2498 44.7713 53.1878 43.7773 53.9998H51.1984L56.8121 59.876C56.2681 60.6306 56 61.5178 56 62.3998C56 63.4109 56.3295 64.4408 57.0527 65.2545C57.776 66.0682 58.9167 66.5998 60.2 66.5998C61.4833 66.5998 62.624 66.0682 63.3473 65.2545C64.0705 64.4408 64.4 63.4109 64.4 62.3998C64.4 61.3887 64.0705 60.3588 63.3473 59.5451C62.624 58.7315 61.4833 58.1998 60.2 58.1998C59.8524 58.1998 59.5177 58.2444 59.1965 58.3174L52.809 51.6346C52.6792 51.4972 52.5228 51.3879 52.3493 51.3131C52.1758 51.2383 51.9889 51.1998 51.8 51.1998H46.8863ZM9.8 60.9998C10.3833 60.9998 10.6426 61.1682 10.8527 61.4045C11.0628 61.6408 11.2 62.0109 11.2 62.3998C11.2 62.7887 11.0628 63.1588 10.8527 63.3951C10.6426 63.6315 10.3833 63.7998 9.8 63.7998C9.21667 63.7998 8.95735 63.6315 8.74727 63.3951C8.53718 63.1588 8.4 62.7887 8.4 62.3998C8.4 62.0109 8.53718 61.6408 8.74727 61.4045C8.95735 61.1682 9.21667 60.9998 9.8 60.9998ZM60.2 60.9998C60.7833 60.9998 61.0426 61.1682 61.2527 61.4045C61.4628 61.6408 61.6 62.0109 61.6 62.3998C61.6 62.7887 61.4628 63.1588 61.2527 63.3951C61.0426 63.6315 60.7833 63.7998 60.2 63.7998C59.6167 63.7998 59.3573 63.6315 59.1473 63.3951C58.9372 63.1588 58.8 62.7887 58.8 62.3998C58.8 62.0109 58.9372 61.6408 59.1473 61.4045C59.3573 61.1682 59.6167 60.9998 60.2 60.9998Z" fill="black"/>
</svg>
