<svg width="70" height="70" viewBox="0 0 70 70" fill="none" xmlns="http://www.w3.org/2000/svg">
<path d="M35 2.7998C32.1425 2.7998 29.7608 4.31427 26.2773 6.03457C22.7939 7.75487 18.1523 9.82717 10.9074 11.3775L9.8 11.6154V12.7475C9.8 29.5669 15.9103 40.9246 22.0418 48.0018C28.1733 55.079 34.4121 57.9713 34.4121 57.9713L35 58.242L35.5879 57.9713C35.5879 57.9713 41.8267 55.079 47.9582 48.0018C54.0897 40.9246 60.2 29.5669 60.2 12.7475V11.6154L59.0926 11.3775C51.8477 9.82717 47.2061 7.75487 43.7227 6.03457C40.2392 4.31427 37.8575 2.7998 35 2.7998ZM35 5.5998C36.7706 5.5998 38.9126 6.78103 42.484 8.54473C45.8294 10.1969 50.5734 12.1986 57.307 13.7701C57.0494 29.2956 51.4774 39.6622 45.8418 46.167C40.5506 52.2744 35.8243 54.6715 35 55.0756C34.1757 54.6715 29.4494 52.2744 24.1582 46.167C18.5226 39.6622 12.9506 29.2956 12.693 13.7701C19.4266 12.1986 24.1706 10.1969 27.516 8.54473C31.0874 6.78103 33.2294 5.5998 35 5.5998ZM35 20.349C34.1877 20.3504 33.3977 20.6147 32.7481 21.1025C32.0985 21.5903 31.6244 22.2753 31.3966 23.055C31.1688 23.8347 31.1996 24.6672 31.4844 25.4279C31.7692 26.1887 32.2927 26.8368 32.9766 27.2752L31.2402 35.3908H38.7598L37.0234 27.2779C37.5557 26.938 37.9938 26.4695 38.2972 25.9156C38.6007 25.3617 38.7598 24.7403 38.7598 24.1088C38.7596 23.1117 38.3634 22.1555 37.6583 21.4504C36.9533 20.7454 35.9971 20.3492 35 20.349ZM4.2 27.9998C2.91667 27.9998 1.77598 28.5315 1.05273 29.3451C0.329486 30.1588 0 31.1887 0 32.1998C0 33.2109 0.329486 34.2408 1.05273 35.0545C1.77598 35.8681 2.91667 36.3998 4.2 36.3998C4.54757 36.3998 4.88233 36.3553 5.20352 36.2822L11.591 42.965C11.7208 43.1024 11.8772 43.2118 12.0507 43.2865C12.2242 43.3613 12.4111 43.3998 12.6 43.3998H15.3016C14.7416 42.5038 14.2093 41.5658 13.6773 40.5998H13.2016L7.58789 34.7236C8.13193 33.9691 8.4 33.0818 8.4 32.1998C8.4 31.1887 8.07051 30.1588 7.34727 29.3451C6.62402 28.5315 5.48333 27.9998 4.2 27.9998ZM65.8 27.9998C64.5167 27.9998 63.376 28.5315 62.6527 29.3451C61.9295 30.1588 61.6 31.1887 61.6 32.1998C61.6 33.0818 61.8681 33.9691 62.4121 34.7236L56.7984 40.5998H56.3227C55.7907 41.5658 55.2584 42.5038 54.6984 43.3998H57.4C57.5889 43.3998 57.7758 43.3613 57.9493 43.2865C58.1228 43.2118 58.2792 43.1024 58.409 42.965L64.7965 36.2822C65.1177 36.3553 65.4524 36.3998 65.8 36.3998C67.0833 36.3998 68.224 35.8681 68.9473 35.0545C69.6705 34.2408 70 33.2109 70 32.1998C70 31.1887 69.6705 30.1588 68.9473 29.3451C68.224 28.5315 67.0833 27.9998 65.8 27.9998ZM4.2 30.7998C4.78333 30.7998 5.04265 30.9681 5.25273 31.2045C5.46282 31.4408 5.6 31.8109 5.6 32.1998C5.6 32.5887 5.46282 32.9588 5.25273 33.1951C5.04265 33.4315 4.78333 33.5998 4.2 33.5998C3.61667 33.5998 3.35735 33.4315 3.14727 33.1951C2.93718 32.9588 2.8 32.5887 2.8 32.1998C2.8 31.8109 2.93718 31.4408 3.14727 31.2045C3.35735 30.9681 3.61667 30.7998 4.2 30.7998ZM65.8 30.7998C66.3833 30.7998 66.6426 30.9681 66.8527 31.2045C67.0628 31.4408 67.2 31.8109 67.2 32.1998C67.2 32.5887 67.0628 32.9588 66.8527 33.1951C66.6426 33.4315 66.3833 33.5998 65.8 33.5998C65.2167 33.5998 64.9574 33.4315 64.7473 33.1951C64.5372 32.9588 64.4 32.5887 64.4 32.1998C64.4 31.8109 64.5372 31.4408 64.7473 31.2045C64.9574 30.9681 65.2167 30.7998 65.8 30.7998ZM5.6 44.7998C4.31667 44.7998 3.17598 45.3315 2.45273 46.1451C1.72949 46.9588 1.4 47.9887 1.4 48.9998C1.4 50.0109 1.72949 51.0408 2.45273 51.8545C3.17598 52.6682 4.31667 53.1998 5.6 53.1998C6.88333 53.1998 8.02402 52.6682 8.74727 51.8545C9.13356 51.4199 9.40162 50.922 9.57305 50.3998H20.4832C19.6992 49.5318 18.9283 48.5938 18.1863 47.5998H9.57305C9.40162 47.0777 9.13356 46.5797 8.74727 46.1451C8.02402 45.3315 6.88333 44.7998 5.6 44.7998ZM64.4 44.7998C63.1167 44.7998 61.976 45.3315 61.2527 46.1451C60.8664 46.5797 60.5984 47.0777 60.427 47.5998H51.8137C51.0717 48.5938 50.3008 49.5318 49.5168 50.3998H60.427C60.5984 50.922 60.8664 51.4199 61.2527 51.8545C61.976 52.6682 63.1167 53.1998 64.4 53.1998C65.6833 53.1998 66.824 52.6682 67.5473 51.8545C68.2705 51.0408 68.6 50.0109 68.6 48.9998C68.6 47.9887 68.2705 46.9588 67.5473 46.1451C66.824 45.3315 65.6833 44.7998 64.4 44.7998ZM5.6 47.5998C6.18333 47.5998 6.44265 47.7682 6.65273 48.0045C6.86282 48.2408 7 48.6109 7 48.9998C7 49.3887 6.86282 49.7588 6.65273 49.9951C6.44265 50.2315 6.18333 50.3998 5.6 50.3998C5.01667 50.3998 4.75735 50.2315 4.54727 49.9951C4.33718 49.7588 4.2 49.3887 4.2 48.9998C4.2 48.6109 4.33718 48.2408 4.54727 48.0045C4.75735 47.7682 5.01667 47.5998 5.6 47.5998ZM64.4 47.5998C64.9833 47.5998 65.2427 47.7682 65.4527 48.0045C65.6628 48.2408 65.8 48.6109 65.8 48.9998C65.8 49.3887 65.6628 49.7588 65.4527 49.9951C65.2427 50.2315 64.9833 50.3998 64.4 50.3998C63.8167 50.3998 63.5574 50.2315 63.3473 49.9951C63.1372 49.7588 63 49.3887 63 48.9998C63 48.6109 63.1372 48.2408 63.3473 48.0045C63.5574 47.7682 63.8167 47.5998 64.4 47.5998ZM18.1809 53.1998C17.9952 53.2024 17.8119 53.2422 17.6419 53.3168C17.4718 53.3915 17.3185 53.4996 17.191 53.6346L10.8035 60.3174C10.4823 60.2444 10.1476 60.1998 9.8 60.1998C8.51667 60.1998 7.37598 60.7315 6.65273 61.5451C5.92949 62.3588 5.6 63.3887 5.6 64.3998C5.6 65.4109 5.92949 66.4408 6.65273 67.2545C7.37598 68.0682 8.51667 68.5998 9.8 68.5998C11.0833 68.5998 12.224 68.0682 12.9473 67.2545C13.6705 66.4408 14 65.4109 14 64.3998C14 63.5178 13.7319 62.6306 13.1879 61.876L18.8016 55.9998H26.2227C25.2287 55.1878 24.1917 54.2498 23.1137 53.1998H18.2C18.1936 53.1998 18.1872 53.1998 18.1809 53.1998ZM46.8863 53.1998C45.8083 54.2498 44.7713 55.1878 43.7773 55.9998H51.1984L56.8121 61.876C56.2681 62.6306 56 63.5178 56 64.3998C56 65.4109 56.3295 66.4408 57.0527 67.2545C57.776 68.0682 58.9167 68.5998 60.2 68.5998C61.4833 68.5998 62.624 68.0682 63.3473 67.2545C64.0705 66.4408 64.4 65.4109 64.4 64.3998C64.4 63.3887 64.0705 62.3588 63.3473 61.5451C62.624 60.7315 61.4833 60.1998 60.2 60.1998C59.8524 60.1998 59.5177 60.2444 59.1965 60.3174L52.809 53.6346C52.6792 53.4972 52.5228 53.3879 52.3493 53.3131C52.1758 53.2383 51.9889 53.1998 51.8 53.1998H46.8863ZM9.8 62.9998C10.3833 62.9998 10.6426 63.1682 10.8527 63.4045C11.0628 63.6408 11.2 64.0109 11.2 64.3998C11.2 64.7887 11.0628 65.1588 10.8527 65.3951C10.6426 65.6315 10.3833 65.7998 9.8 65.7998C9.21667 65.7998 8.95735 65.6315 8.74727 65.3951C8.53718 65.1588 8.4 64.7887 8.4 64.3998C8.4 64.0109 8.53718 63.6408 8.74727 63.4045C8.95735 63.1682 9.21667 62.9998 9.8 62.9998ZM60.2 62.9998C60.7833 62.9998 61.0426 63.1682 61.2527 63.4045C61.4628 63.6408 61.6 64.0109 61.6 64.3998C61.6 64.7887 61.4628 65.1588 61.2527 65.3951C61.0426 65.6315 60.7833 65.7998 60.2 65.7998C59.6167 65.7998 59.3573 65.6315 59.1473 65.3951C58.9372 65.1588 58.8 64.7887 58.8 64.3998C58.8 64.0109 58.9372 63.6408 59.1473 63.4045C59.3573 63.1682 59.6167 62.9998 60.2 62.9998Z" fill="black"/>
</svg>
